<?xml version="1.0" encoding="UTF-8"?>
<!DOCTYPE svg PUBLIC "-//W3C//DTD SVG 1.1 Tiny//EN" "http://www.w3.org/Graphics/SVG/1.1/DTD/svg11-tiny.dtd">
<svg baseProfile="tiny" viewBox="-0.0002441 0 426.2109375 426.2109375" xml:space="preserve" xmlns="http://www.w3.org/2000/svg">

<g transform="matrix(.92388,-.38268,.38268,.92388,49.42576,280.90376)">
	<path d="m-.00046.00038 177.16577-.00053" fill="none" stroke="#000" stroke-linecap="round" stroke-width=".66823"></path>
</g>
<g transform="matrix(.88985,-.45626,.45626,.88985,49.42576,280.90376)">
	<path d="m-.00055.00041 141.97491-1.53e-005" fill="none" stroke="#000" stroke-linecap="round" stroke-width=".66823"></path>
</g>
<g transform="matrix(.93388,-.35758,.35758,.93388,49.42576,280.90376)">
	<path d="m-.00053.00049 141.99695-.00043" fill="none" stroke="#000" stroke-linecap="round" stroke-width=".66823"></path>
</g>
<g transform="matrix(.94321,-.33221,.33221,.94321,49.42576,280.90376)">
	<path d="m-.00052.00049 141.98889,6.1e-005" fill="none" stroke="#000" stroke-linecap="round" stroke-width=".66823"></path>
</g>
<g transform="matrix(.95184,-.30659,.30659,.95184,49.42576,280.90376)">
	<path d="m-.00052.00049 141.97534-.00082" fill="none" stroke="#000" stroke-linecap="round" stroke-width=".66823"></path>
</g>
<g transform="matrix(.92388,.38268,-.38268,.92388,49.42576,145.30776)">
	<path d="m-.00034,9.16e-005 177.16559,6.1e-005" fill="none" stroke="#000" stroke-linecap="round" stroke-width=".66823"></path>
</g>
<g transform="matrix(.95184,.30659,-.30659,.95184,49.42576,145.30776)">
	<path d="m-.00034,6.1e-005 141.97504-9.16e-005" fill="none" stroke="#000" stroke-linecap="round" stroke-width=".66823"></path>
</g>
<g transform="matrix(.9132,.4075,-.4075,.9132,49.42576,145.30776)">
	<path d="m-.00034,9.16e-005 141.99763-9.16e-005" fill="none" stroke="#000" stroke-linecap="round" stroke-width=".66823"></path>
</g>
<g transform="matrix(.90186,.43204,-.43204,.90186,49.42576,145.30776)">
	<path d="m-.00031,6.1e-005h141.98923" fill="none" stroke="#000" stroke-linecap="round" stroke-width=".66823"></path>
</g>
<g transform="matrix(.88985,.45626,-.45626,.88985,49.42576,145.30776)">
	<path d="m-.00032,6.1e-005h141.97491" fill="none" stroke="#000" stroke-linecap="round" stroke-width=".66823"></path>
</g>
<g transform="matrix(.38268,-.92388,.92388,.38268,145.30676,376.78476)">
	<path d="m-.00061-.00024 177.16577.00053" fill="none" stroke="#000" stroke-linecap="round" stroke-width=".66823"></path>
</g>
<g transform="matrix(.30659,-.95184,.95184,.30659,145.30676,376.78476)">
	<path d="m-.00058-.00031 141.97629.00052" fill="none" stroke="#000" stroke-linecap="round" stroke-width=".66823"></path>
</g>
<g transform="matrix(.40751,-.9132,.9132,.40751,145.30676,376.78476)">
	<path d="m-.00064-.00023h141.9971" fill="none" stroke="#000" stroke-linecap="round" stroke-width=".66823"></path>
</g>
<g transform="matrix(.43204,-.90185,.90185,.43204,145.30676,376.78476)">
	<path d="m-.00061-.00021 141.98965.00054" fill="none" stroke="#000" stroke-linecap="round" stroke-width=".66823"></path>
</g>
<g transform="matrix(.45626,-.88985,.88985,.45626,145.30676,376.78476)">
	<path d="m-.00067-.00018 141.97491,1.53e-005" fill="none" stroke="#000" stroke-linecap="round" stroke-width=".66823"></path>
</g>
<g transform="matrix(-.92388,.38268,-.38268,-.92388,376.78376,145.30776)">
	<path d="m-6.1e-005-3.05e-005 177.16559-9.16e-005" fill="none" stroke="#000" stroke-linecap="round" stroke-width=".66823"></path>
</g>
<g transform="matrix(-.88886,.45818,-.45818,-.88886,376.78376,145.30776)">
	<path d="m0-4.58e-005 141.97488-.00018" fill="none" stroke="#000" stroke-linecap="round" stroke-width=".66823"></path>
</g>
<g transform="matrix(-.91291,.40817,-.40817,-.91291,376.78376,145.30776)">
	<path d="m0-7.63e-005 141.9971.00011" fill="none" stroke="#000" stroke-linecap="round" stroke-width=".66823"></path>
</g>
<g transform="matrix(-.90123,.43334,-.43334,-.90123,376.78376,145.30776)">
	<path d="m6.1e-005,0 141.98935.00011" fill="none" stroke="#000" stroke-linecap="round" stroke-width=".66823"></path>
</g>
<g transform="matrix(-.9525,.30453,-.30453,-.9525,376.78376,145.30776)">
	<path d="m0,0 141.97498,6.1e-005" fill="none" stroke="#000" stroke-linecap="round" stroke-width=".66823"></path>
</g>
<g transform="matrix(-.38268,.92388,-.92388,-.38268,280.90276,49.42676)">
	<path d="m.00012-.00017 177.16528.00075" fill="none" stroke="#000" stroke-linecap="round" stroke-width=".66823"></path>
</g>
<g transform="matrix(-.30453,.9525,-.9525,-.30453,280.90276,49.42676)">
	<path d="m.00018-.00012 141.9751.0004" fill="none" stroke="#000" stroke-linecap="round" stroke-width=".66823"></path>
</g>
<g transform="matrix(-.3569,.93414,-.93414,-.3569,280.90276,49.42676)">
	<path d="m.00018-7.63e-005 141.99707-.00021" fill="none" stroke="#000" stroke-linecap="round" stroke-width=".66823"></path>
</g>
<g transform="matrix(-.33084,.94369,-.94369,-.33084,280.90276,49.42676)">
	<path d="m.00012-7.63e-005 141.98938.00024" fill="none" stroke="#000" stroke-linecap="round" stroke-width=".66823"></path>
</g>
<g transform="matrix(-.45818,.88886,-.88886,-.45818,280.90276,49.42676)">
	<path d="m.00018-9.16e-005 141.97491.00014" fill="none" stroke="#000" stroke-linecap="round" stroke-width=".66823"></path>
</g>
<g transform="matrix(.38268,.92388,-.92388,.38268,145.30676,49.42676)">
	<path d="m-3.05e-005,.00073 177.16528-.00073" fill="none" stroke="#000" stroke-linecap="round" stroke-width=".66823"></path>
</g>
<g transform="matrix(.45818,.88886,-.88886,.45818,145.30676,49.42676)">
	<path d="m-9.16e-005,.00073 141.97488-.00015" fill="none" stroke="#000" stroke-linecap="round" stroke-width=".66823"></path>
</g>
<g transform="matrix(.40817,.91291,-.91291,.40817,145.30676,49.42676)">
	<path d="m-3.05e-005,.00073 141.99707.00012" fill="none" stroke="#000" stroke-linecap="round" stroke-width=".66823"></path>
</g>
<g transform="matrix(.43334,.90123,-.90123,.43334,145.30676,49.42676)">
	<path d="m-3.05e-005,.00076 141.98892-6.1e-005" fill="none" stroke="#000" stroke-linecap="round" stroke-width=".66823"></path>
</g>
<g transform="matrix(.30453,.9525,-.9525,.30453,145.30676,49.42676)">
	<path d="m.00012.00073 141.9751-.00037" fill="none" stroke="#000" stroke-linecap="round" stroke-width=".66823"></path>
</g>
<g transform="matrix(-.38268,-.92388,.92388,-.38268,280.90276,376.78476)">
	<path d="m-.0007-.00031 177.16574-.00058" fill="none" stroke="#000" stroke-linecap="round" stroke-width=".66823"></path>
</g>
<g transform="matrix(-.45818,-.88886,.88886,-.45818,280.90276,376.78476)">
	<path d="m-.00069-.0004 141.97491-.00015" fill="none" stroke="#000" stroke-linecap="round" stroke-width=".66823"></path>
</g>
<g transform="matrix(-.40817,-.91291,.91291,-.40817,280.90276,376.78476)">
	<path d="m-.00067-.00037 141.99797.00052" fill="none" stroke="#000" stroke-linecap="round" stroke-width=".66823"></path>
</g>
<g transform="matrix(-.43334,-.90123,.90123,-.43334,280.90276,376.78476)">
	<path d="m-.00066-.0004 141.98935,9.16e-005" fill="none" stroke="#000" stroke-linecap="round" stroke-width=".66823"></path>
</g>
<g transform="matrix(-.30453,-.9525,.9525,-.30453,280.90276,376.78476)">
	<path d="m-.00071-.00027 141.97601-9.16e-005" fill="none" stroke="#000" stroke-linecap="round" stroke-width=".66823"></path>
</g>
<g transform="matrix(-.92388,-.38268,.38268,-.92388,376.78376,280.90376)">
	<path d="m-.00018-.00092 177.16579.00055" fill="none" stroke="#000" stroke-linecap="round" stroke-width=".66823"></path>
</g>
<g transform="matrix(-.9525,-.30453,.30453,-.9525,376.78376,280.90376)">
	<path d="m-.00012-.00092 141.97511.00037" fill="none" stroke="#000" stroke-linecap="round" stroke-width=".66823"></path>
</g>
<g transform="matrix(-.93414,-.3569,.3569,-.93414,376.78376,280.90376)">
	<path d="m-9.16e-005-.00092 141.99742.0007" fill="none" stroke="#000" stroke-linecap="round" stroke-width=".66823"></path>
</g>
<g transform="matrix(-.94369,-.33084,.33084,-.94369,376.78376,280.90376)">
	<path d="m-6.1e-005-.00098 141.98935.00024" fill="none" stroke="#000" stroke-linecap="round" stroke-width=".66823"></path>
</g>
<g transform="matrix(-.88886,-.45818,.45818,-.88886,376.78376,280.90376)">
	<path d="m-.00021-.00095 141.9749.00018" fill="none" stroke="#000" stroke-linecap="round" stroke-width=".66823"></path>
</g>
<g transform="matrix(.70711,-.70711,.70711,.70711,65.66676,65.66676)">
	<path d="m10.69421,208.54411-8.99731-186.47347c8.30057-4.90451 3.96161-14.9024-1.69769-22.0705l3.05e-005,208.54398 10.69498-2e-005z" fill="#fff" stroke="#000" stroke-linejoin="round" stroke-width=".37728"></path>
</g>
<g transform="matrix(.70711,-.70711,.70711,.70711,58.10476,73.22876)">
	<path d="m-9.16e-005,208.54413 8.99628-186.47314c-8.2999-4.9045-3.96127-14.90274 1.69766-22.0712v208.54401l-10.69394.00034z" stroke="#000" stroke-linejoin="round" stroke-width=".37728"></path>
</g>
<g transform="matrix(-.70711,.70711,-.70711,-.70711,360.54276,360.54276)">
	<path d="m10.6958,208.54379-8.99762-186.47313c8.30087-4.90489 3.96155-14.90244-1.69736-22.07085v208.54395l10.69498,3e-005z" stroke="#000" stroke-linejoin="round" stroke-width=".37728"></path>
</g>
<g transform="matrix(-.70711,.70711,-.70711,-.70711,368.10376,352.97976)">
	<path d="m.00018,208.54379 8.99695-186.47241c-8.3002-4.90555-3.96091-14.90311 1.698-22.07155v208.54398l-10.69495-2e-005z" fill="#fff" stroke="#000" stroke-linejoin="round" stroke-width=".37728"></path>
</g>
<g transform="matrix(-.70711,-.70711,.70711,-.70711,65.66676,360.54276)">
	<path d="m10.69489,208.54306-8.99767-186.47311c8.30092-4.90488 3.96161-14.9024-1.69732-22.07086l-1.53e-005,208.54398h10.69501z" fill="#fff" stroke="#000" stroke-linejoin="round" stroke-width=".37728"></path>
</g>
<g transform="matrix(-.70711,-.70711,.70711,-.70711,73.22976,368.10376)">
	<path d="m-9.16e-005,208.54373 8.99695-186.47382c-8.30021-4.90417-3.96158-14.9024 1.69802-22.07016l-.00034,208.54364-10.69463.00034z" stroke="#000" stroke-linejoin="round" stroke-width=".37728"></path>
</g>
<g transform="matrix(.70711,.70711,-.70711,.70711,360.54276,65.66576)">
	<path d="m10.69511,208.54486-8.99696-186.47382c8.3002-4.90417 3.96158-14.9024-1.69803-22.07013v208.54395h10.69499z" stroke="#000" stroke-linejoin="round" stroke-width=".37728"></path>
</g>
<g transform="matrix(.70711,.70711,-.70711,.70711,352.97976,58.10476)">
	<path d="m9.16e-005,208.54422 8.99664-186.47281c-8.30023-4.90417-3.96161-14.90234 1.69769-22.07043l-1.53e-005,208.54395-10.69432-.0007z" fill="#fff" stroke="#000" stroke-linejoin="round" stroke-width=".472"></path>
</g>
<g transform="matrix(0,1,-1,0,425.70376,198.74076)">
	<path d="m12.41165,28.72998c.8042-11.49219-6.81641-11.49219-6.66553-11.49219 0,0 7.46973,0 8.61914-17.2373v212.59766l-14.36475-14.36426 12.41113-169.50391z" fill="#fff" stroke="#000" stroke-linejoin="round" stroke-width=".81081"></path>
</g>
<g transform="matrix(0,1,-1,0,425.70376,213.10576)">
	<path d="m1.95435,28.72998c-.80469-11.49219 6.81543-11.49219 6.66504-11.49219 0,0-7.46973,0-8.61865-17.2373v212.59766l14.36475-14.36426-12.41113-169.50391z" stroke="#000" stroke-linejoin="round" stroke-width=".81081"></path>
</g>
<g transform="matrix(0,-1,1,0,.50676,227.46976)">
	<path d="m12.41061,28.72874c.80469-11.49219-6.81641-11.49219-6.66504-11.49219 0,0 7.46973,0 8.61865-17.2373v212.59863l-14.36475-14.36523 12.41113-169.50391z" stroke="#000" stroke-linejoin="round" stroke-width=".81081"></path>
</g>
<g transform="matrix(0,-1,1,0,.50676,213.10476)">
	<path d="m1.95285,28.72874c-.8042-11.49219 6.81641-11.49219 6.66553-11.49219 0,0-7.46973,0-8.61865-17.2373v212.59863l14.36426-14.36523-12.41113-169.50391z" fill="#fff" stroke="#000" stroke-linejoin="round" stroke-width=".81081"></path>
</g>
<g transform="translate(198.74076,.50676)">
	<path d="m12.41077,28.7301c.80371-11.49219-6.81641-11.49219-6.66504-11.49219 0,0 7.46875,0 8.61816-17.2373v212.59814l-14.36426-14.36523 12.41113-169.50342z" fill="#fff" stroke="#000" stroke-linejoin="round" stroke-width=".81081"></path>
</g>
<g transform="translate(213.10576,.50676)">
	<path d="m1.953,28.7301c-.80469-11.49219 6.81641-11.49219 6.66504-11.49219 0,0-7.46973,0-8.61816-17.2373v212.59814l14.36426-14.36523-12.41113-169.50342z" stroke="#000" stroke-linejoin="round" stroke-width=".811"></path>
</g>
<g transform="matrix(-1,0,0,-1,227.46976,425.70376)">
	<path d="m12.41199,28.72861c.80371-11.49219-6.81641-11.49219-6.66602-11.49219 .00098,0 7.46973,0 8.61914-17.2373v212.59814l-14.36426-14.36475 12.41113-169.50391z" stroke="#000" stroke-linejoin="round" stroke-width=".81081"></path>
</g>
<g transform="matrix(-1,0,0,-1,213.10576,425.70376)">
	<path d="m1.95422,28.72861c-.80469-11.49219 6.81641-11.49219 6.66504-11.49219 0,0-7.46973,0-8.61914-17.2373v212.59814l14.36523-14.36475-12.41113-169.50391z" fill="#fff" stroke="#000" stroke-linejoin="round" stroke-width=".81081"></path>
</g>
<g transform="matrix(.70711,.70711,-.70711,.70711,213.10576,213.10576)">
	<path d="m.00043.00058 20.31725.0004" fill="none" stroke="#fff" stroke-linecap="round" stroke-width=".81081"></path>
</g>
</svg>
